<?xml version="1.0" encoding="UTF-8"?>
<svg width="8.625rem" height="2rem" viewBox="0 0 138 32" version="1.1" xmlns="http://www.w3.org/2000/svg" xmlns:xlink="http://www.w3.org/1999/xlink">
    <!-- Generator: sketchtool 52.4 (67378) - http://www.bohemiancoding.com/sketch -->
    <title>5566A2F4-011F-46BB-9202-B47EB07914CC</title>
    <desc>Created with sketchtool.</desc>
    <defs>
        <linearGradient x1="50%" y1="0%" x2="50%" y2="100%" id="linearGradient-1">
            <stop stop-color="#76CDD8" offset="0%"></stop>
            <stop stop-color="#E2F86A" offset="100%"></stop>
        </linearGradient>
    </defs>
    <g id="Symbols" stroke="none" stroke-width="1" fill="none" fill-rule="evenodd">
        <g id="Top_block" transform="translate(-85.000000, -16.000000)">
            <g id="Logo" transform="translate(85.000000, 16.000000)">
                <g>
                    <path d="M45.976,22 L43.368,9.04 L45.448,9.04 L47.16,18.208 L48.776,9.04 L50.904,9.04 L48.296,22 L45.976,22 Z M52.5493333,22 L52.5493333,9.04 L54.8853333,9.04 L54.8853333,22 L52.5493333,22 Z M57.1386666,22 L57.1386666,9.04 L60.1946666,9.04 C63.3466666,9.04 64.3066666,10.304 64.3066666,13.072 L64.3066666,17.792 C64.3066666,20.64 63.3306666,22 60.2906666,22 L57.1386666,22 Z M59.4906666,20.352 L60.2266666,20.352 C61.8426666,20.352 61.9066666,19.488 61.9066666,17.872 L61.9066666,12.912 C61.9066666,11.36 61.7466666,10.72 60.1946666,10.72 L59.4906666,10.72 L59.4906666,20.352 Z M66.3039999,22 L66.3039999,9.04 L71.7439999,9.04 L71.7439999,10.704 L68.6559999,10.704 L68.6559999,14.432 L71.0879999,14.432 L71.0879999,16.08 L68.6559999,16.08 L68.6559999,20.384 L71.7759999,20.384 L71.7759999,22 L66.3039999,22 Z M76.9413332,22.176 C74.1413332,22.176 73.1973332,20.56 73.1973332,17.936 L73.1973332,13.072 C73.1973332,10.448 74.1573332,8.896 76.9413332,8.896 C79.7093332,8.896 80.6693332,10.448 80.6693332,13.072 L80.6693332,17.936 C80.6693332,20.544 79.7093332,22.176 76.9413332,22.176 Z M76.9413332,20.432 C78.0933332,20.432 78.2693332,19.568 78.2693332,18.496 L78.2693332,12.528 C78.2693332,11.44 78.0933332,10.624 76.9413332,10.624 C75.7893332,10.624 75.5973332,11.44 75.5973332,12.528 L75.5973332,18.496 C75.5973332,19.568 75.7733332,20.432 76.9413332,20.432 Z M90.2959998,22.176 C87.4479998,22.176 86.5999998,20.384 86.5999998,17.856 L86.5999998,13.232 C86.5999998,10.576 87.4479998,8.896 90.2959998,8.896 C92.9519998,8.896 93.7999998,10.368 93.7999998,12.624 L93.7999998,13.712 L91.5279998,13.712 L91.5279998,12.592 C91.5279998,11.504 91.5119998,10.624 90.3119998,10.624 C89.0959998,10.624 88.9839998,11.552 88.9839998,12.736 L88.9839998,18.352 C88.9839998,19.76 89.2719998,20.432 90.3119998,20.432 C91.4799998,20.432 91.5279998,19.52 91.5279998,18.368 L91.5279998,17.2 L93.7999998,17.2 L93.7999998,18.24 C93.7999998,20.528 93.0319998,22.176 90.2959998,22.176 Z M99.2373331,22.176 C96.4373331,22.176 95.4933331,20.56 95.4933331,17.936 L95.4933331,13.072 C95.4933331,10.448 96.4533331,8.896 99.2373331,8.896 C102.005333,8.896 102.965333,10.448 102.965333,13.072 L102.965333,17.936 C102.965333,20.544 102.005333,22.176 99.2373331,22.176 Z M99.2373331,20.432 C100.389333,20.432 100.565333,19.568 100.565333,18.496 L100.565333,12.528 C100.565333,11.44 100.389333,10.624 99.2373331,10.624 C98.0853331,10.624 97.8933331,11.44 97.8933331,12.528 L97.8933331,18.496 C97.8933331,19.568 98.0693331,20.432 99.2373331,20.432 Z M108.514666,22.176 C105.602666,22.176 104.866666,20.528 104.866666,17.808 L104.866666,9.04 L107.170666,9.04 L107.170666,18.08 C107.170666,19.312 107.314666,20.416 108.514666,20.416 C109.730666,20.416 109.874666,19.312 109.874666,18.08 L109.874666,9.04 L112.162666,9.04 L112.162666,17.808 C112.162666,20.528 111.410666,22.176 108.514666,22.176 Z M114.272,22 L114.272,9.04 L117.392,9.04 C119.984,9.04 121.456,9.872 121.456,12.48 C121.456,14.032 121.072,15.12 119.856,15.616 L121.664,22 L119.296,22 L117.744,16.064 L116.624,16.064 L116.624,22 L114.272,22 Z M116.624,14.592 L117.376,14.592 C118.736,14.592 119.232,14 119.232,12.608 C119.232,11.296 118.864,10.656 117.504,10.656 L116.624,10.656 L116.624,14.592 Z M126.733333,22.176 C124.365333,22.176 123.245333,20.8 123.149333,18.224 L125.181333,17.824 C125.245333,19.36 125.613333,20.352 126.653333,20.352 C127.405333,20.352 127.725333,19.84 127.725333,19.136 C127.725333,18.016 127.149333,17.392 126.301333,16.656 L124.669333,15.232 C123.741333,14.432 123.165333,13.536 123.165333,12.096 C123.165333,10.048 124.445333,8.896 126.509333,8.896 C128.941333,8.896 129.629333,10.528 129.757333,12.416 L127.725333,12.768 C127.677333,11.552 127.501333,10.64 126.461333,10.64 C125.757333,10.64 125.373333,11.168 125.373333,11.856 C125.373333,12.736 125.741333,13.216 126.429333,13.808 L128.045333,15.232 C129.101333,16.144 129.981333,17.28 129.981333,18.992 C129.981333,20.864 128.669333,22.176 126.733333,22.176 Z M131.626666,22 L131.626666,9.04 L137.066666,9.04 L137.066666,10.704 L133.978666,10.704 L133.978666,14.432 L136.410666,14.432 L136.410666,16.08 L133.978666,16.08 L133.978666,20.384 L137.098666,20.384 L137.098666,22 L131.626666,22 Z" id="Video-Course" fill="#FFFFFF"></path>
                    <g id="Group-5" fill="url(#linearGradient-1)" fill-rule="nonzero">
                        <path d="M16,32 C7.163444,32 0,24.836556 0,16 C0,7.163444 7.163444,0 16,0 C24.836556,0 32,7.163444 32,16 C32,24.836556 24.836556,32 16,32 Z M16,30 C23.7319865,30 30,23.7319865 30,16 C30,8.2680135 23.7319865,2 16,2 C8.2680135,2 2,8.2680135 2,16 C2,23.7319865 8.2680135,30 16,30 Z M22.7519246,16.8320503 L13.5547002,22.9635332 C13.0951715,23.2698857 12.4743022,23.1457118 12.1679497,22.6861831 C12.058438,22.5219156 12,22.3289079 12,22.1314829 L12,9.86851709 C12,9.31623234 12.4477153,8.86851709 13,8.86851709 C13.197425,8.86851709 13.3904327,8.92695512 13.5547002,9.0364668 L22.7519246,15.1679497 C23.2114532,15.4743022 23.3356271,16.0951715 23.0292747,16.5547002 C22.9560398,16.6645525 22.8617768,16.7588154 22.7519246,16.8320503 Z" id="Combined-Shape"></path>
                    </g>
                </g>
            </g>
        </g>
    </g>
</svg>